<mxfile host="app.diagrams.net" modified="2024-02-06T12:09:07.067Z" agent="Mozilla/5.0 (Windows NT 10.0; Win64; x64) AppleWebKit/537.36 (KHTML, like Gecko) Chrome/120.0.0.0 Safari/537.36" etag="Vhlt8KB7GrhvaJV_lCnJ" version="23.1.1" type="device">
  <diagram name="Pagina-1" id="nfj_-uKN0z2ZdvL2R3y9">
    <mxGraphModel dx="521" dy="521" grid="1" gridSize="10" guides="1" tooltips="1" connect="1" arrows="1" fold="1" page="1" pageScale="1" pageWidth="1200" pageHeight="1600" math="0" shadow="0">
      <root>
        <mxCell id="0" />
        <mxCell id="1" parent="0" />
        <mxCell id="an3jwR8r5m1eLv54w_Fg-4" value="" style="edgeStyle=orthogonalEdgeStyle;rounded=0;orthogonalLoop=1;jettySize=auto;html=1;" parent="1" source="an3jwR8r5m1eLv54w_Fg-2" target="an3jwR8r5m1eLv54w_Fg-3" edge="1">
          <mxGeometry relative="1" as="geometry" />
        </mxCell>
        <mxCell id="an3jwR8r5m1eLv54w_Fg-2" value="start" style="rounded=0;whiteSpace=wrap;html=1;" parent="1" vertex="1">
          <mxGeometry x="480" y="40" width="120" height="60" as="geometry" />
        </mxCell>
        <mxCell id="an3jwR8r5m1eLv54w_Fg-13" value="" style="edgeStyle=orthogonalEdgeStyle;rounded=0;orthogonalLoop=1;jettySize=auto;html=1;" parent="1" source="an3jwR8r5m1eLv54w_Fg-3" edge="1">
          <mxGeometry relative="1" as="geometry">
            <mxPoint x="540" y="215" as="targetPoint" />
          </mxGeometry>
        </mxCell>
        <mxCell id="an3jwR8r5m1eLv54w_Fg-3" value="naam invoeren" style="rounded=1;whiteSpace=wrap;html=1;" parent="1" vertex="1">
          <mxGeometry x="480" y="120" width="120" height="60" as="geometry" />
        </mxCell>
        <mxCell id="an3jwR8r5m1eLv54w_Fg-9" value="" style="edgeStyle=orthogonalEdgeStyle;rounded=0;orthogonalLoop=1;jettySize=auto;html=1;" parent="1" target="an3jwR8r5m1eLv54w_Fg-7" edge="1">
          <mxGeometry relative="1" as="geometry">
            <mxPoint x="600" y="245" as="sourcePoint" />
          </mxGeometry>
        </mxCell>
        <mxCell id="an3jwR8r5m1eLv54w_Fg-34" value="false" style="edgeLabel;html=1;align=center;verticalAlign=middle;resizable=0;points=[];" parent="an3jwR8r5m1eLv54w_Fg-9" vertex="1" connectable="0">
          <mxGeometry x="-0.1922" relative="1" as="geometry">
            <mxPoint as="offset" />
          </mxGeometry>
        </mxCell>
        <mxCell id="an3jwR8r5m1eLv54w_Fg-7" value="Probeeer het opnieuw" style="whiteSpace=wrap;html=1;aspect=fixed;" parent="1" vertex="1">
          <mxGeometry x="650" y="205" width="80" height="80" as="geometry" />
        </mxCell>
        <mxCell id="an3jwR8r5m1eLv54w_Fg-16" value="" style="endArrow=classic;html=1;rounded=0;entryX=1;entryY=0.5;entryDx=0;entryDy=0;exitX=0.5;exitY=0;exitDx=0;exitDy=0;" parent="1" source="an3jwR8r5m1eLv54w_Fg-7" target="an3jwR8r5m1eLv54w_Fg-3" edge="1">
          <mxGeometry width="50" height="50" relative="1" as="geometry">
            <mxPoint x="560" y="260" as="sourcePoint" />
            <mxPoint x="610" y="210" as="targetPoint" />
            <Array as="points">
              <mxPoint x="690" y="150" />
            </Array>
          </mxGeometry>
        </mxCell>
        <mxCell id="an3jwR8r5m1eLv54w_Fg-21" value="" style="edgeStyle=orthogonalEdgeStyle;rounded=0;orthogonalLoop=1;jettySize=auto;html=1;" parent="1" source="an3jwR8r5m1eLv54w_Fg-17" edge="1">
          <mxGeometry relative="1" as="geometry">
            <mxPoint x="540" y="450" as="targetPoint" />
          </mxGeometry>
        </mxCell>
        <mxCell id="an3jwR8r5m1eLv54w_Fg-17" value="naam toevoegen" style="whiteSpace=wrap;html=1;aspect=fixed;" parent="1" vertex="1">
          <mxGeometry x="500" y="320" width="80" height="80" as="geometry" />
        </mxCell>
        <mxCell id="an3jwR8r5m1eLv54w_Fg-18" value="" style="endArrow=classic;html=1;rounded=0;exitX=0.5;exitY=1;exitDx=0;exitDy=0;entryX=0.5;entryY=0;entryDx=0;entryDy=0;" parent="1" target="an3jwR8r5m1eLv54w_Fg-17" edge="1">
          <mxGeometry width="50" height="50" relative="1" as="geometry">
            <mxPoint x="540" y="275" as="sourcePoint" />
            <mxPoint x="610" y="210" as="targetPoint" />
          </mxGeometry>
        </mxCell>
        <mxCell id="an3jwR8r5m1eLv54w_Fg-35" value="true" style="edgeLabel;html=1;align=center;verticalAlign=middle;resizable=0;points=[];" parent="an3jwR8r5m1eLv54w_Fg-18" vertex="1" connectable="0">
          <mxGeometry x="-0.0133" y="-2" relative="1" as="geometry">
            <mxPoint as="offset" />
          </mxGeometry>
        </mxCell>
        <mxCell id="an3jwR8r5m1eLv54w_Fg-23" value="" style="endArrow=classic;html=1;rounded=0;entryX=0;entryY=0.5;entryDx=0;entryDy=0;exitX=0;exitY=0.5;exitDx=0;exitDy=0;" parent="1" target="an3jwR8r5m1eLv54w_Fg-3" edge="1">
          <mxGeometry width="50" height="50" relative="1" as="geometry">
            <mxPoint x="480" y="480" as="sourcePoint" />
            <mxPoint x="440" y="480" as="targetPoint" />
            <Array as="points">
              <mxPoint x="380" y="480" />
              <mxPoint x="380" y="150" />
            </Array>
          </mxGeometry>
        </mxCell>
        <mxCell id="an3jwR8r5m1eLv54w_Fg-32" value="false" style="edgeLabel;html=1;align=center;verticalAlign=middle;resizable=0;points=[];" parent="an3jwR8r5m1eLv54w_Fg-23" vertex="1" connectable="0">
          <mxGeometry x="-0.8242" y="-1" relative="1" as="geometry">
            <mxPoint as="offset" />
          </mxGeometry>
        </mxCell>
        <mxCell id="an3jwR8r5m1eLv54w_Fg-37" value="" style="edgeStyle=orthogonalEdgeStyle;rounded=0;orthogonalLoop=1;jettySize=auto;html=1;" parent="1" target="an3jwR8r5m1eLv54w_Fg-36" edge="1">
          <mxGeometry relative="1" as="geometry">
            <mxPoint x="540" y="630" as="sourcePoint" />
          </mxGeometry>
        </mxCell>
        <mxCell id="an3jwR8r5m1eLv54w_Fg-38" value="nee" style="edgeLabel;html=1;align=center;verticalAlign=middle;resizable=0;points=[];" parent="an3jwR8r5m1eLv54w_Fg-37" vertex="1" connectable="0">
          <mxGeometry x="-0.305" y="-2" relative="1" as="geometry">
            <mxPoint as="offset" />
          </mxGeometry>
        </mxCell>
        <mxCell id="an3jwR8r5m1eLv54w_Fg-27" value="" style="endArrow=classic;html=1;rounded=0;exitX=0;exitY=0.5;exitDx=0;exitDy=0;" parent="1" edge="1">
          <mxGeometry width="50" height="50" relative="1" as="geometry">
            <mxPoint x="500" y="590" as="sourcePoint" />
            <mxPoint x="380" y="410" as="targetPoint" />
            <Array as="points">
              <mxPoint x="380" y="590" />
            </Array>
          </mxGeometry>
        </mxCell>
        <mxCell id="an3jwR8r5m1eLv54w_Fg-28" value="ja" style="edgeLabel;html=1;align=center;verticalAlign=middle;resizable=0;points=[];" parent="an3jwR8r5m1eLv54w_Fg-27" vertex="1" connectable="0">
          <mxGeometry x="-0.5773" y="1" relative="1" as="geometry">
            <mxPoint as="offset" />
          </mxGeometry>
        </mxCell>
        <mxCell id="an3jwR8r5m1eLv54w_Fg-29" value="" style="endArrow=classic;html=1;rounded=0;exitX=0.5;exitY=1;exitDx=0;exitDy=0;entryX=0.5;entryY=0;entryDx=0;entryDy=0;" parent="1" edge="1">
          <mxGeometry width="50" height="50" relative="1" as="geometry">
            <mxPoint x="540" y="510" as="sourcePoint" />
            <mxPoint x="540" y="550" as="targetPoint" />
          </mxGeometry>
        </mxCell>
        <mxCell id="an3jwR8r5m1eLv54w_Fg-33" value="true" style="edgeLabel;html=1;align=center;verticalAlign=middle;resizable=0;points=[];" parent="an3jwR8r5m1eLv54w_Fg-29" vertex="1" connectable="0">
          <mxGeometry x="-0.13" y="-2" relative="1" as="geometry">
            <mxPoint as="offset" />
          </mxGeometry>
        </mxCell>
        <mxCell id="an3jwR8r5m1eLv54w_Fg-40" value="" style="edgeStyle=orthogonalEdgeStyle;rounded=0;orthogonalLoop=1;jettySize=auto;html=1;" parent="1" source="an3jwR8r5m1eLv54w_Fg-36" target="an3jwR8r5m1eLv54w_Fg-39" edge="1">
          <mxGeometry relative="1" as="geometry" />
        </mxCell>
        <mxCell id="an3jwR8r5m1eLv54w_Fg-36" value="lootje trekken" style="rounded=1;whiteSpace=wrap;html=1;" parent="1" vertex="1">
          <mxGeometry x="480" y="690" width="120" height="60" as="geometry" />
        </mxCell>
        <mxCell id="an3jwR8r5m1eLv54w_Fg-39" value="chcken" style="whiteSpace=wrap;html=1;rounded=1;" parent="1" vertex="1">
          <mxGeometry x="480" y="770" width="120" height="60" as="geometry" />
        </mxCell>
        <mxCell id="an3jwR8r5m1eLv54w_Fg-41" value="het lijst" style="whiteSpace=wrap;html=1;aspect=fixed;" parent="1" vertex="1">
          <mxGeometry x="500" y="850" width="80" height="80" as="geometry" />
        </mxCell>
        <mxCell id="an3jwR8r5m1eLv54w_Fg-42" value="" style="endArrow=classic;html=1;rounded=0;exitX=0.5;exitY=1;exitDx=0;exitDy=0;entryX=0.5;entryY=0;entryDx=0;entryDy=0;" parent="1" source="an3jwR8r5m1eLv54w_Fg-39" target="an3jwR8r5m1eLv54w_Fg-41" edge="1">
          <mxGeometry width="50" height="50" relative="1" as="geometry">
            <mxPoint x="940" y="990" as="sourcePoint" />
            <mxPoint x="990" y="940" as="targetPoint" />
          </mxGeometry>
        </mxCell>
        <mxCell id="akipdYYX0LlGUaE673Xb-3" value="uniek naam?" style="rhombus;whiteSpace=wrap;html=1;" vertex="1" parent="1">
          <mxGeometry x="500" y="210" width="80" height="80" as="geometry" />
        </mxCell>
        <mxCell id="akipdYYX0LlGUaE673Xb-4" value="3 of meer namen?" style="rhombus;whiteSpace=wrap;html=1;" vertex="1" parent="1">
          <mxGeometry x="500" y="440" width="80" height="80" as="geometry" />
        </mxCell>
        <mxCell id="akipdYYX0LlGUaE673Xb-5" value="wil je meer namen toevoegen?" style="rhombus;whiteSpace=wrap;html=1;" vertex="1" parent="1">
          <mxGeometry x="495" y="550" width="90" height="90" as="geometry" />
        </mxCell>
      </root>
    </mxGraphModel>
  </diagram>
</mxfile>
